<svg width="18" height="18" viewBox="0 0 18 18" fill="none" xmlns="http://www.w3.org/2000/svg">
<path fill-rule="evenodd" clip-rule="evenodd" d="M9.00032 17.3333C13.6027 17.3333 17.3337 13.6023 17.3337 8.99999C17.3337 4.39761 13.6027 0.666656 9.00032 0.666656C4.39795 0.666656 0.666992 4.39761 0.666992 8.99999C0.666992 13.6023 4.39795 17.3333 9.00032 17.3333ZM11.9466 6.05371C12.2721 5.72827 12.7997 5.72827 13.1252 6.05371C13.4506 6.37915 13.4506 6.90679 13.1252 7.23222L8.41416 11.9432L8.41107 11.9462C8.32691 12.0304 8.22924 12.0928 8.12499 12.1335C7.97732 12.191 7.81657 12.2049 7.66266 12.1751C7.50507 12.1446 7.35457 12.0683 7.23256 11.9462L7.2294 11.9431L4.87556 9.58924C4.55012 9.26382 4.55012 8.73616 4.87556 8.41074C5.20099 8.08532 5.72863 8.08532 6.05407 8.41074L7.82182 10.1785L11.9466 6.05371Z" fill="#035397"/>
</svg>
