<svg width="46" height="46" viewBox="0 0 46 46" fill="none" xmlns="http://www.w3.org/2000/svg">
<path d="M23 3.8335C18.9347 3.83806 15.0373 5.455 12.1627 8.32957C9.28813 11.2041 7.67119 15.1016 7.66663 19.1668C7.66663 25.4056 12.1957 30.5863 16.9931 36.0699C18.5111 37.8064 20.0828 39.6023 21.482 41.4193C21.661 41.6516 21.891 41.8397 22.1541 41.9691C22.4173 42.0985 22.7067 42.1658 23 42.1658C23.2932 42.1658 23.5826 42.0985 23.8458 41.9691C24.1089 41.8397 24.3389 41.6516 24.518 41.4193C25.9171 39.6023 27.4888 37.8064 29.0068 36.0699C33.8042 30.5863 38.3333 25.4056 38.3333 19.1668C38.3287 15.1016 36.7118 11.2041 33.8372 8.32957C30.9626 5.455 27.0652 3.83806 23 3.8335V3.8335ZM23 24.9168C21.8627 24.9168 20.751 24.5796 19.8054 23.9478C18.8598 23.316 18.1229 22.4179 17.6877 21.3673C17.2524 20.3166 17.1386 19.1605 17.3604 18.0451C17.5823 16.9297 18.1299 15.9051 18.9341 15.101C19.7382 14.2968 20.7628 13.7492 21.8782 13.5273C22.9936 13.3054 24.1497 13.4193 25.2004 13.8545C26.2511 14.2897 27.1491 15.0267 27.7809 15.9723C28.4127 16.9179 28.75 18.0296 28.75 19.1668C28.75 20.6918 28.1442 22.1544 27.0658 23.2327C25.9875 24.311 24.525 24.9168 23 24.9168Z" fill="black"/>
</svg>
