<svg width="143" height="48" viewBox="0 0 143 48" fill="none" xmlns="http://www.w3.org/2000/svg">
<path d="M53.2123 12.7716H45.3371C44.7982 12.7716 44.3399 13.1631 44.2559 13.6951L41.0708 33.8892C41.0074 34.2877 41.316 34.6469 41.7202 34.6469H45.4799C46.0188 34.6469 46.4771 34.2554 46.5612 33.7223L47.4202 28.2756C47.5031 27.7425 47.9626 27.3509 48.5003 27.3509H50.9934C56.1809 27.3509 59.1749 24.8406 59.9568 19.8661C60.3091 17.6897 59.9717 15.9797 58.9526 14.7822C57.8334 13.4671 55.8482 12.7716 53.2123 12.7716ZM54.1209 20.1471C53.6902 22.9729 51.5311 22.9729 49.4434 22.9729H48.2551L49.0888 17.6955C49.1383 17.3765 49.4146 17.1416 49.7371 17.1416H50.2817C51.7039 17.1416 53.0454 17.1416 53.7386 17.9523C54.152 18.4359 54.2786 19.1545 54.1209 20.1471Z" fill="#253B80"/>
<path d="M76.7529 20.0561H72.9817C72.6605 20.0561 72.3829 20.291 72.3334 20.61L72.1665 21.6647L71.9028 21.2824C71.0863 20.0975 69.2658 19.7014 67.4487 19.7014C63.2814 19.7014 59.722 22.8577 59.0288 27.2853C58.6684 29.4939 59.1808 31.6058 60.4337 33.0786C61.5829 34.4327 63.2273 34.997 65.1837 34.997C68.5415 34.997 70.4035 32.8379 70.4035 32.8379L70.2354 33.8858C70.172 34.2865 70.4806 34.6458 70.8825 34.6458H74.2795C74.8195 34.6458 75.2756 34.2543 75.3608 33.7211L77.3989 20.8138C77.4634 20.4165 77.156 20.0561 76.7529 20.0561ZM71.4963 27.3958C71.1324 29.5503 69.4224 30.9966 67.2414 30.9966C66.1463 30.9966 65.2712 30.6454 64.7093 29.9798C64.1519 29.3189 63.94 28.3781 64.1174 27.3302C64.4571 25.1941 66.1959 23.7006 68.3434 23.7006C69.4143 23.7006 70.2849 24.0564 70.8583 24.7278C71.4329 25.406 71.6609 26.3526 71.4963 27.3958Z" fill="#253B80"/>
<path d="M96.8376 20.056H93.048C92.6864 20.056 92.3467 20.2357 92.1417 20.5362L86.915 28.2352L84.6995 20.8368C84.5602 20.3738 84.133 20.056 83.6493 20.056H79.9253C79.4728 20.056 79.1584 20.4982 79.3023 20.9243L83.4766 33.1741L79.5522 38.714C79.2436 39.1505 79.5545 39.7504 80.0877 39.7504H83.8727C84.232 39.7504 84.5682 39.5754 84.772 39.2806L97.3765 21.0866C97.6782 20.6514 97.3685 20.056 96.8376 20.056Z" fill="#253B80"/>
<path d="M109.385 12.7716H101.508C100.971 12.7716 100.512 13.1631 100.428 13.6951L97.2431 33.8892C97.1798 34.2877 97.4884 34.6469 97.8903 34.6469H101.932C102.307 34.6469 102.629 34.3729 102.688 33.9998L103.591 28.2756C103.674 27.7425 104.134 27.3509 104.672 27.3509H107.163C112.352 27.3509 115.345 24.8406 116.128 19.8661C116.481 17.6897 116.142 15.9797 115.123 14.7822C114.005 13.4671 112.021 12.7716 109.385 12.7716ZM110.293 20.1471C109.864 22.9729 107.705 22.9729 105.616 22.9729H104.429L105.263 17.6955C105.313 17.3765 105.587 17.1416 105.911 17.1416H106.455C107.876 17.1416 109.219 17.1416 109.912 17.9523C110.325 18.4359 110.451 19.1545 110.293 20.1471Z" fill="#179BD7"/>
<path d="M132.924 20.0561H129.155C128.832 20.0561 128.556 20.291 128.508 20.61L128.341 21.6647L128.076 21.2824C127.26 20.0975 125.44 19.7014 123.623 19.7014C119.456 19.7014 115.898 22.8577 115.205 27.2853C114.845 29.4939 115.355 31.6058 116.608 33.0786C117.76 34.4327 119.402 34.997 121.358 34.997C124.716 34.997 126.578 32.8379 126.578 32.8379L126.41 33.8858C126.347 34.2865 126.655 34.6458 127.059 34.6458H130.455C130.993 34.6458 131.451 34.2543 131.535 33.7211L133.575 20.8138C133.637 20.4165 133.328 20.0561 132.924 20.0561ZM127.667 27.3958C127.306 29.5503 125.594 30.9966 123.413 30.9966C122.32 30.9966 121.442 30.6454 120.88 29.9798C120.323 29.3189 120.113 28.3781 120.288 27.3302C120.63 25.1941 122.367 23.7006 124.515 23.7006C125.585 23.7006 126.456 24.0564 127.029 24.7278C127.606 25.406 127.834 26.3526 127.667 27.3958Z" fill="#179BD7"/>
<path d="M137.37 13.3254L134.138 33.8892C134.074 34.2876 134.383 34.6469 134.785 34.6469H138.034C138.574 34.6469 139.033 34.2554 139.116 33.7222L142.303 13.5292C142.366 13.1308 142.058 12.7704 141.656 12.7704H138.017C137.696 12.7715 137.419 13.0064 137.37 13.3254Z" fill="#179BD7"/>
<path d="M8.36683 38.5713L8.96907 34.746L7.62756 34.7149H1.22168L5.67344 6.48781C5.68725 6.40259 5.73216 6.32314 5.7978 6.26671C5.86344 6.21029 5.9475 6.1792 6.03501 6.1792H16.8362C20.422 6.1792 22.8966 6.92538 24.1886 8.39817C24.7943 9.08908 25.1801 9.81108 25.3666 10.6056C25.5624 11.4393 25.5659 12.4354 25.3747 13.6502L25.3609 13.7389V14.5173L25.9666 14.8605C26.4767 15.1311 26.882 15.4408 27.1929 15.7955C27.7111 16.3862 28.0462 17.137 28.1879 18.0271C28.3341 18.9426 28.2857 20.0319 28.0462 21.2652C27.7699 22.6839 27.3231 23.9194 26.7197 24.9305C26.1646 25.862 25.4576 26.6347 24.6182 27.2335C23.8167 27.8024 22.8644 28.2342 21.7877 28.5105C20.7445 28.7823 19.555 28.9193 18.2503 28.9193H17.4097C16.8086 28.9193 16.2248 29.1358 15.7665 29.5239C15.307 29.92 15.003 30.4612 14.9097 31.0531L14.8464 31.3974L13.7824 38.1395L13.734 38.3871C13.7214 38.4654 13.6995 38.5045 13.6673 38.531C13.6385 38.5552 13.597 38.5713 13.5567 38.5713H8.36683Z" fill="#253B80"/>
<path d="M26.5401 13.8286C26.5079 14.0347 26.471 14.2455 26.4296 14.4619C25.0052 21.7752 20.132 24.3016 13.908 24.3016H10.739C9.9779 24.3016 9.3365 24.8544 9.2179 25.6052L7.59541 35.8951L7.13596 38.8119C7.0588 39.3047 7.4388 39.7492 7.93626 39.7492H13.5568C14.2224 39.7492 14.7878 39.2656 14.8926 38.6092L14.9478 38.3236L16.0061 31.608L16.074 31.2395C16.1777 30.5809 16.7442 30.0972 17.4098 30.0972H18.2504C23.6959 30.0972 27.9588 27.8863 29.2047 21.4885C29.7252 18.8158 29.4558 16.5842 28.0786 15.0147C27.6617 14.5414 27.1447 14.1487 26.5401 13.8286Z" fill="#179BD7"/>
<path d="M25.05 13.2345C24.8323 13.1712 24.6078 13.1136 24.3775 13.0618C24.146 13.0111 23.9088 12.9662 23.6647 12.9271C22.8103 12.7889 21.8741 12.7233 20.8711 12.7233H12.4052C12.1967 12.7233 11.9987 12.7705 11.8213 12.8557C11.431 13.0434 11.1408 13.413 11.0706 13.8656L9.26959 25.2725L9.21777 25.6053C9.33638 24.8545 9.97777 24.3018 10.7389 24.3018H13.9079C20.1318 24.3018 25.005 21.7742 26.4295 14.4621C26.4721 14.2456 26.5078 14.0348 26.54 13.8287C26.1796 13.6376 25.7892 13.4741 25.3689 13.3347C25.2653 13.3002 25.1582 13.2668 25.05 13.2345Z" fill="#222D65"/>
<path d="M11.0707 13.8655C11.1409 13.413 11.4311 13.0433 11.8214 12.8568C11.9999 12.7716 12.1968 12.7244 12.4053 12.7244H20.8712C21.8742 12.7244 22.8103 12.79 23.6648 12.9282C23.9089 12.9673 24.1461 13.0122 24.3776 13.0629C24.6079 13.1147 24.8324 13.1723 25.05 13.2356C25.1583 13.2679 25.2654 13.3013 25.3702 13.3347C25.7905 13.474 26.1808 13.6387 26.5413 13.8287C26.965 11.1261 26.5378 9.28594 25.0765 7.6197C23.4656 5.78533 20.558 5 16.8374 5H6.03623C5.27623 5 4.62793 5.55273 4.51047 6.30467L0.0115023 34.8219C-0.0771644 35.3862 0.358108 35.8952 0.926957 35.8952H7.59538L9.26968 25.2724L11.0707 13.8655Z" fill="#253B80"/>
</svg>
