<svg width="70" height="70" viewBox="0 0 70 70" fill="none" xmlns="http://www.w3.org/2000/svg">
<g clip-path="url(#clip0_905_2571)">
<path d="M65.6252 1.45831H4.37516C2.76433 1.45831 1.4585 2.76415 1.4585 4.37498V65.625C1.4585 67.2358 2.76433 68.5416 4.37516 68.5416H65.6252C67.236 68.5416 68.5418 67.2358 68.5418 65.625V4.37498C68.5418 2.76415 67.236 1.45831 65.6252 1.45831Z" fill="white"/>
<path d="M36.4585 10.2083H68.5418V4.37498C68.5418 3.60143 68.2345 2.85957 67.6876 2.31258C67.1406 1.7656 66.3987 1.45831 65.6252 1.45831H36.4585V10.2083Z" fill="#7C6F66"/>
<path d="M40.8333 32.0833C40.8351 34.3821 40.384 36.6588 39.5057 38.7832C38.6274 40.9076 37.3392 42.8382 35.7146 44.4646L30.625 39.375C31.5685 38.4123 32.312 37.2723 32.8126 36.0208C33.3132 34.7693 33.561 33.4311 33.5417 32.0833H40.8333Z" fill="#FCD900"/>
<path d="M35.7147 44.4646C34.0883 46.0892 32.1578 47.3774 30.0334 48.2557C27.909 49.134 25.6323 49.5851 23.3335 49.5833V42.2917C24.6813 42.311 26.0195 42.0632 27.271 41.5626C28.5225 41.062 29.6625 40.3185 30.6252 39.375L35.7147 44.4646Z" fill="#7C6F66"/>
<path d="M23.3334 42.2917V49.5833C21.0346 49.5851 18.7579 49.134 16.6335 48.2557C14.5091 47.3774 12.5786 46.0892 10.9521 44.4646L16.1146 39.375C18.0411 41.2627 20.6363 42.3113 23.3334 42.2917Z" fill="#FCD900"/>
<path d="M16.1148 39.375L10.9523 44.4646C9.32765 42.8382 8.03941 40.9076 7.16111 38.7832C6.28282 36.6588 5.83169 34.3821 5.8335 32.0833H13.1252C13.1154 33.4362 13.3747 34.7775 13.888 36.0293C14.4012 37.281 15.1581 38.4183 16.1148 39.375Z" fill="#7C6F66"/>
<path d="M16.1148 24.8646C15.1668 25.8126 14.4149 26.938 13.902 28.1766C13.389 29.4152 13.1251 30.7427 13.1252 32.0833H5.8335C5.83169 29.7845 6.28282 27.5079 7.16111 25.3835C8.03941 23.2591 9.32765 21.3285 10.9523 19.7021L16.1148 24.8646Z" fill="#FCD900"/>
<path d="M23.3334 14.5833V21.875C21.9928 21.8749 20.6653 22.1389 19.4267 22.6518C18.1881 23.1648 17.0627 23.9167 16.1146 24.8646L10.9521 19.7021C12.5786 18.0775 14.5091 16.7892 16.6335 15.9109C18.7579 15.0326 21.0346 14.5815 23.3334 14.5833Z" fill="#7C6F66"/>
<path d="M35.7147 19.7021L30.6252 24.8646C29.6685 23.9079 28.5312 23.151 27.2795 22.6378C26.0277 22.1245 24.6864 21.8653 23.3335 21.875V14.5833C25.6323 14.5815 27.909 15.0326 30.0334 15.9109C32.1578 16.7892 34.0883 18.0775 35.7147 19.7021Z" fill="#FCD900"/>
<path d="M40.8333 32.0833H33.5417C33.5613 29.3863 32.5127 26.791 30.625 24.8646L35.7875 19.7021C39.0418 22.9987 40.8564 27.4511 40.8333 32.0833Z" fill="#7C6F66"/>
<path d="M23.3335 36.4583C25.7497 36.4583 27.7085 34.4996 27.7085 32.0833C27.7085 29.6671 25.7497 27.7083 23.3335 27.7083C20.9173 27.7083 18.9585 29.6671 18.9585 32.0833C18.9585 34.4996 20.9173 36.4583 23.3335 36.4583Z" fill="#FCD900"/>
<path d="M62.7085 23.3333H45.2085V26.25H62.7085V23.3333Z" fill="#FCD900"/>
<path d="M62.7085 32.0833H45.2085V35H62.7085V32.0833Z" fill="#7C6F66"/>
<path d="M65.625 0H4.375C3.21468 0 2.10188 0.460936 1.28141 1.28141C0.460936 2.10188 0 3.21468 0 4.375L0 65.625C0 66.7853 0.460936 67.8981 1.28141 68.7186C2.10188 69.5391 3.21468 70 4.375 70H65.625C66.7853 70 67.8981 69.5391 68.7186 68.7186C69.5391 67.8981 70 66.7853 70 65.625V4.375C70 3.21468 69.5391 2.10188 68.7186 1.28141C67.8981 0.460936 66.7853 0 65.625 0V0ZM65.625 2.91667C66.0118 2.91667 66.3827 3.07031 66.6562 3.3438C66.9297 3.61729 67.0833 3.98823 67.0833 4.375V8.75H37.9167V2.91667H65.625ZM67.0833 65.625C67.0833 66.0118 66.9297 66.3827 66.6562 66.6562C66.3827 66.9297 66.0118 67.0833 65.625 67.0833H4.375C3.98823 67.0833 3.61729 66.9297 3.3438 66.6562C3.07031 66.3827 2.91667 66.0118 2.91667 65.625V4.375C2.91667 3.98823 3.07031 3.61729 3.3438 3.3438C3.61729 3.07031 3.98823 2.91667 4.375 2.91667H35V11.6667H67.0833V65.625Z" fill="black"/>
<path d="M17.5002 5.83331H5.8335V8.74998H17.5002V5.83331Z" fill="black"/>
<path d="M53.9585 46.6667H45.2085V49.5834H53.9585V46.6667Z" fill="black"/>
<path d="M62.7085 40.8333H45.2085V43.75H62.7085V40.8333Z" fill="black"/>
<path d="M11.6668 58.3333H5.8335V64.1666H11.6668V58.3333Z" fill="#7C6F66"/>
<path d="M20.4168 58.3333H14.5835V64.1666H20.4168V58.3333Z" fill="#FCD900"/>
<path d="M29.1668 58.3333H23.3335V64.1666H29.1668V58.3333Z" fill="#7C6F66"/>
<path d="M37.9168 58.3333H32.0835V64.1666H37.9168V58.3333Z" fill="#FCD900"/>
</g>
<defs>
<clipPath id="clip0_905_2571">
<rect width="70" height="70" fill="white"/>
</clipPath>
</defs>
</svg>
