<svg width="70" height="70" viewBox="0 0 70 70" fill="none" xmlns="http://www.w3.org/2000/svg">
<g clip-path="url(#clip0_905_2594)">
<path d="M51.0418 1.45831H1.4585V68.5416H51.0418V1.45831Z" fill="white"/>
<path d="M49.5832 61.25H2.9165V67.0833H49.5832V61.25Z" fill="#FCD900"/>
<path d="M11.6668 17.5C14.8885 17.5 17.5002 14.8883 17.5002 11.6666C17.5002 8.44499 14.8885 5.83331 11.6668 5.83331C8.44517 5.83331 5.8335 8.44499 5.8335 11.6666C5.8335 14.8883 8.44517 17.5 11.6668 17.5Z" fill="#FCD900"/>
<path d="M46.6665 7.29169H20.4165V10.2084H46.6665V7.29169Z" fill="#7C6F66"/>
<path d="M43.7502 13.125H23.3335V16.0417H43.7502V13.125Z" fill="#7C6F66"/>
<path d="M68.5418 8.75H36.4585V32.0833H68.5418V8.75Z" fill="#FCD900"/>
<path d="M67.0832 10.2083H37.9165V16.0416H67.0832V10.2083Z" fill="white"/>
<path d="M67.0833 42.2917H32.0833C31.2779 42.2917 30.625 42.9446 30.625 43.75V67.0834C30.625 67.8888 31.2779 68.5417 32.0833 68.5417H67.0833C67.8887 68.5417 68.5417 67.8888 68.5417 67.0834V43.75C68.5417 42.9446 67.8887 42.2917 67.0833 42.2917Z" fill="#FCD900"/>
<path d="M70 33.5417V7.29167H52.5V0H0V70H67.0833C67.8569 70 68.5988 69.6927 69.1457 69.1457C69.6927 68.5988 70 67.8569 70 67.0833V43.75C70 42.9765 69.6927 42.2346 69.1457 41.6876C68.5988 41.1406 67.8569 40.8333 67.0833 40.8333H52.5V33.5417H70ZM67.0833 10.2083V30.625H37.9167V10.2083H67.0833ZM67.0833 43.75V67.0833H32.0833V43.75H67.0833ZM49.5833 40.8333H32.0833C31.3098 40.8333 30.5679 41.1406 30.0209 41.6876C29.474 42.2346 29.1667 42.9765 29.1667 43.75V67.0833H2.91667V2.91667H49.5833V7.29167H35V33.5417H49.5833V40.8333Z" fill="black"/>
<path d="M40.8335 18.9583V21.875H52.5002V18.9583H40.8335ZM40.8335 24.7916V27.7083H58.3335V24.7916H40.8335Z" fill="black"/>
<path d="M32.0835 43.75L49.5835 56.875L67.0835 43.75H32.0835Z" fill="#7C6F66"/>
<path d="M49.5835 61.25C51.9997 61.25 53.9585 59.2912 53.9585 56.875C53.9585 54.4588 51.9997 52.5 49.5835 52.5C47.1673 52.5 45.2085 54.4588 45.2085 56.875C45.2085 59.2912 47.1673 61.25 49.5835 61.25Z" fill="white"/>
<path d="M34.9998 23.3333H7.2915V26.25H34.9998V23.3333Z" fill="#7C6F66"/>
<path d="M34.9998 29.1667H7.2915V32.0834H34.9998V29.1667Z" fill="#7C6F66"/>
<path d="M27.7082 35H7.2915V37.9167H27.7082V35Z" fill="#7C6F66"/>
<path d="M18.9582 45.2083H7.2915V48.125H18.9582V45.2083Z" fill="#7C6F66"/>
<path d="M18.9582 52.5H7.2915V55.4167H18.9582V52.5Z" fill="#7C6F66"/>
</g>
<defs>
<clipPath id="clip0_905_2594">
<rect width="70" height="70" fill="white"/>
</clipPath>
</defs>
</svg>
