<svg width="70" height="70" viewBox="0 0 70 70" fill="none" xmlns="http://www.w3.org/2000/svg">
<g clip-path="url(#clip0_905_2529)">
<path d="M7.29183 1.45831H1.4585V7.29165H7.29183V1.45831Z" fill="#7C6F66"/>
<path d="M68.5418 1.45831H62.7085V7.29165H68.5418V1.45831Z" fill="#7C6F66"/>
<path d="M7.29183 62.7083H1.4585V68.5416H7.29183V62.7083Z" fill="#7C6F66"/>
<path d="M68.5418 62.7083H62.7085V68.5416H68.5418V62.7083Z" fill="#7C6F66"/>
<path d="M53.9582 23.3333L34.9998 33.5417L16.0415 23.3333L34.9998 13.125L53.9582 23.3333Z" fill="#FCD900"/>
<path d="M34.9998 33.5416V56.875L16.0415 46.6666V23.3333L34.9998 33.5416Z" fill="white"/>
<path d="M53.9583 23.3333V46.6666L35 56.875V33.5416L53.9583 23.3333Z" fill="#7C6F66"/>
<path d="M0 8.75H8.75V0H0V8.75ZM2.91667 2.91667H5.83333V5.83333H2.91667V2.91667ZM61.25 0V8.75H70V0H61.25ZM67.0833 5.83333H64.1667V2.91667H67.0833V5.83333Z" fill="black"/>
<path d="M20.4168 2.91669H14.5835V5.83335H20.4168V2.91669Z" fill="black"/>
<path d="M29.1668 2.91669H23.3335V5.83335H29.1668V2.91669Z" fill="black"/>
<path d="M37.9168 2.91669H32.0835V5.83335H37.9168V2.91669Z" fill="black"/>
<path d="M46.6668 2.91669H40.8335V5.83335H46.6668V2.91669Z" fill="black"/>
<path d="M55.4168 2.91669H49.5835V5.83335H55.4168V2.91669Z" fill="black"/>
<path d="M0 70H8.75V61.25H0V70ZM2.91667 64.1667H5.83333V67.0833H2.91667V64.1667ZM61.25 70H70V61.25H61.25V70ZM64.1667 64.1667H67.0833V67.0833H64.1667V64.1667Z" fill="black"/>
<path d="M20.4168 64.1667H14.5835V67.0834H20.4168V64.1667Z" fill="black"/>
<path d="M29.1668 64.1667H23.3335V67.0834H29.1668V64.1667Z" fill="black"/>
<path d="M37.9168 64.1667H32.0835V67.0834H37.9168V64.1667Z" fill="black"/>
<path d="M46.6668 64.1667H40.8335V67.0834H46.6668V64.1667Z" fill="black"/>
<path d="M55.4168 64.1667H49.5835V67.0834H55.4168V64.1667Z" fill="black"/>
<path d="M5.83317 14.5833H2.9165V20.4166H5.83317V14.5833Z" fill="black"/>
<path d="M5.83317 23.3333H2.9165V29.1666H5.83317V23.3333Z" fill="black"/>
<path d="M5.83317 32.0833H2.9165V37.9166H5.83317V32.0833Z" fill="black"/>
<path d="M5.83317 40.8333H2.9165V46.6666H5.83317V40.8333Z" fill="black"/>
<path d="M5.83317 49.5833H2.9165V55.4166H5.83317V49.5833Z" fill="black"/>
<path d="M67.0832 49.5833H64.1665V55.4166H67.0832V49.5833Z" fill="black"/>
<path d="M67.0832 40.8333H64.1665V46.6666H67.0832V40.8333Z" fill="black"/>
<path d="M67.0832 32.0833H64.1665V37.9166H67.0832V32.0833Z" fill="black"/>
<path d="M67.0832 23.3333H64.1665V29.1666H67.0832V23.3333Z" fill="black"/>
<path d="M67.0832 14.5833H64.1665V20.4166H67.0832V14.5833Z" fill="black"/>
<path d="M35.0002 11.4625L14.5835 22.4584V47.5417L35.0002 58.5229L55.4168 47.5417V22.4584C53.3314 21.35 56.3939 22.9979 35.0002 11.4625ZM35.0002 14.7875L50.8814 23.3334L35.0002 31.8792L19.1189 23.3334L35.0002 14.7875ZM33.5418 54.4396L17.5002 45.7917V25.7834L33.5418 34.4167V54.4396ZM52.5002 45.7917L36.4585 54.4396V34.4167L52.5002 25.7834V45.7917Z" fill="black"/>
</g>
<defs>
<clipPath id="clip0_905_2529">
<rect width="70" height="70" fill="white"/>
</clipPath>
</defs>
</svg>
