<svg width="19" height="18" viewBox="0 0 19 18" fill="none" xmlns="http://www.w3.org/2000/svg">
<g clip-path="url(#clip0_905_2159)">
<path d="M0 2.09093C0 1.48486 0.212127 0.984864 0.636362 0.590938C1.0606 0.196994 1.61212 3.05176e-05 2.2909 3.05176e-05C2.95758 3.05176e-05 3.49696 0.193957 3.90908 0.581847C4.33332 0.981846 4.54545 1.50304 4.54545 2.14548C4.54545 2.72729 4.33939 3.21213 3.92726 3.60002C3.50303 4.00002 2.94545 4.20002 2.25454 4.20002H2.23636C1.56969 4.20002 1.03031 4.00002 0.618181 3.60002C0.206054 3.20002 0 2.69699 0 2.09093ZM0.236363 18V5.85456H4.27272V18H0.236363ZM6.50908 18H10.5454V11.2182C10.5454 10.7939 10.5939 10.4667 10.6909 10.2364C10.8606 9.82424 11.1182 9.47575 11.4636 9.19091C11.8091 8.90606 12.2424 8.76364 12.7636 8.76364C14.1212 8.76364 14.8 9.67878 14.8 11.5091V18H18.8363V11.0364C18.8363 9.24242 18.4121 7.88182 17.5636 6.95455C16.7151 6.02728 15.5939 5.56365 14.2 5.56365C12.6363 5.56365 11.4182 6.23637 10.5454 7.58183V7.61819H10.5273L10.5454 7.58183V5.85456H6.50908C6.53331 6.24243 6.54544 7.44848 6.54544 9.47273C6.54544 11.497 6.53331 14.3394 6.50908 18Z" fill="black"/>
</g>
<defs>
<clipPath id="clip0_905_2159">
<rect width="18.8363" height="18" fill="white"/>
</clipPath>
</defs>
</svg>
