<svg width="28" height="28" viewBox="0 0 28 28" fill="none" xmlns="http://www.w3.org/2000/svg">
<g clip-path="url(#clip0_905_2135)">
<path d="M27.0633 22.1165C27.1976 22.5199 26.9522 23.2015 26.5156 23.6381L23.7462 26.4075C23.0913 27.0629 21.861 27.3153 21.0009 26.971L19.7212 26.4596C12.5536 23.5922 4.40651 15.4455 1.53957 8.2775L1.0277 6.99825C0.683821 6.13812 0.936258 4.90787 1.5912 4.25293L4.36057 1.48356C4.7972 1.0465 5.47926 0.80106 5.8822 0.93581C8.09945 1.67475 10.4996 4.07443 11.2385 6.29168C11.3728 6.69462 11.1274 7.37668 10.6908 7.81331L9.10832 9.39575C8.67126 9.83237 8.54132 10.6356 8.81738 11.1877L9.22994 12.0133C10.4729 14.4992 13.4999 17.5262 15.9858 18.7692L16.8109 19.1817C17.3635 19.4578 18.1663 19.3274 18.6029 18.8908L20.1858 17.3084C20.6224 16.8717 21.3041 16.6263 21.7074 16.7606C23.9243 17.4996 26.3244 19.8997 27.0633 22.1165Z" fill="black"/>
<path d="M12.9259 5.08113L13.0283 6.20332C13.0563 6.51088 13.2668 6.72788 13.4986 6.68719C13.4986 6.68719 13.9278 6.65526 14.3601 6.66707C16.1919 6.71038 17.9366 7.46638 19.2303 8.76795C20.5319 10.0616 21.2874 11.8064 21.3347 13.6417C21.3509 14.2358 21.2848 14.8234 21.2787 14.8466C21.2034 15.1463 21.3863 15.4455 21.6873 15.5151L22.7754 15.7662C23.0764 15.8358 23.3809 15.6485 23.4544 15.3488C23.5056 15.1428 23.5913 14.3662 23.5703 13.5826C23.5108 11.1733 22.5177 8.88257 20.8128 7.18551C19.1153 5.48013 16.8249 4.48701 14.4156 4.42794C13.8968 4.41394 13.3818 4.44676 13.3818 4.44676C13.1023 4.48919 12.8984 4.77357 12.9259 5.08113Z" fill="black"/>
<path fill-rule="evenodd" clip-rule="evenodd" d="M12.6026 1.52337L12.7041 2.63725C12.7321 2.94481 12.9811 3.16531 13.2602 3.129C13.2602 3.129 13.7707 3.10187 14.2809 3.11412C17.0699 3.18937 19.7168 4.333 21.679 6.31093L21.6869 6.31881C21.6829 6.31487 21.6829 6.31487 21.679 6.31093C21.6829 6.31487 21.6829 6.31487 21.6829 6.31487L21.6869 6.31881C23.6652 8.281 24.8124 10.9318 24.8837 13.7169C24.9038 14.5499 24.8189 15.3834 24.7581 15.6494C24.6894 15.9508 24.878 16.2514 25.179 16.3209L26.2706 16.5729C26.5716 16.6421 26.8712 16.4539 26.9399 16.1529C27.0423 15.7049 27.1456 14.6838 27.1228 13.6618C27.0357 10.2987 25.655 7.09844 23.2654 4.73243C23.2654 4.73243 23.2654 4.73243 23.2614 4.7285L23.2654 4.73243C20.8998 2.34281 17.6991 0.962059 14.3404 0.878934C13.741 0.864496 13.1434 0.893809 13.1075 0.898184C12.8008 0.935809 12.5746 1.21581 12.6026 1.52337ZM23.2614 4.7285C23.2654 4.73243 23.2654 4.73243 23.2654 4.73243L23.2614 4.7285Z" fill="black"/>
</g>
<defs>
<clipPath id="clip0_905_2135">
<rect width="28" height="28" fill="white"/>
</clipPath>
</defs>
</svg>
