<svg width="20" height="20" viewBox="0 0 20 20" fill="none" xmlns="http://www.w3.org/2000/svg">
<path d="M18.3333 4.83332C17.7069 5.10507 17.0445 5.28471 16.3666 5.36666C17.0818 4.93943 17.6177 4.26731 17.875 3.47499C17.2029 3.87504 16.4673 4.15691 15.7 4.30832C15.1871 3.75213 14.5041 3.38191 13.7581 3.2557C13.0122 3.1295 12.2454 3.25446 11.5781 3.61098C10.9108 3.96751 10.3807 4.53543 10.071 5.22569C9.76125 5.91594 9.68937 6.68948 9.86663 7.42499C8.50782 7.35626 7.17866 7.00245 5.96551 6.38654C4.75235 5.77063 3.68233 4.9064 2.82496 3.84999C2.52424 4.37513 2.36623 4.96984 2.36663 5.57499C2.36556 6.13698 2.50347 6.69051 2.76809 7.1863C3.0327 7.68208 3.41581 8.10475 3.88329 8.41666C3.33994 8.40187 2.8082 8.25607 2.33329 7.99166V8.03332C2.33737 8.82073 2.61329 9.58257 3.11439 10.19C3.61549 10.7974 4.31101 11.213 5.08329 11.3667C4.78601 11.4571 4.47736 11.5048 4.16663 11.5083C3.95153 11.5058 3.73698 11.4863 3.52496 11.45C3.74488 12.1273 4.17048 12.7193 4.74252 13.1435C5.31457 13.5676 6.00461 13.803 6.71663 13.8167C5.5143 14.7627 4.02986 15.279 2.49996 15.2833C2.22141 15.2842 1.94307 15.2675 1.66663 15.2333C3.22865 16.2419 5.04897 16.7773 6.90829 16.775C8.19137 16.7883 9.46424 16.5458 10.6526 16.0617C11.8409 15.5776 12.9208 14.8616 13.8293 13.9554C14.7378 13.0492 15.4566 11.9712 15.9438 10.7841C16.4309 9.59701 16.6767 8.32476 16.6666 7.04166C16.6666 6.89999 16.6666 6.74999 16.6666 6.59999C17.3205 6.11233 17.8845 5.51451 18.3333 4.83332V4.83332Z" fill="black"/>
</svg>
